<?xml version="1.0" encoding="UTF-8"?><svg id="Layer_2" xmlns="http://www.w3.org/2000/svg" xmlns:xlink="http://www.w3.org/1999/xlink" viewBox="0 0 120 90"><defs><style>.cls-1{fill:#fff;}.cls-1,.cls-2,.cls-3,.cls-4{fill-rule:evenodd;}.cls-2{fill:url(#linear-gradient-2);}.cls-3{fill:url(#linear-gradient);opacity:.8;}.cls-4{fill:#2c5591;}</style><linearGradient id="linear-gradient" x1="91.26" y1="2275.64" x2="22.7" y2="2336.89" gradientTransform="translate(0 2348.57) scale(1 -1)" gradientUnits="userSpaceOnUse"><stop offset="0" stop-color="#a9c8ff"/><stop offset="1" stop-color="#c7e6ff"/></linearGradient><linearGradient id="linear-gradient-2" x1="22.58" y1="2336.79" x2="89.58" y2="2277.29" gradientTransform="translate(0 2348.57) scale(1 -1)" gradientUnits="userSpaceOnUse"><stop offset="0" stop-color="#2d4664"/><stop offset=".17" stop-color="#29405b"/><stop offset=".44" stop-color="#1e2f43"/><stop offset=".79" stop-color="#0c131b"/><stop offset="1" stop-color="#000"/></linearGradient></defs><g id="MS_Official"><g id="Official_PS_Core_6.0"><g id="Logo_Container"><path id="Outer_Border" class="cls-3" d="M5.03,90c-1.63,0-3.05-.64-3.98-1.8-.95-1.18-1.28-2.81-.9-4.47L18.14,5.82c.75-3.26,3.92-5.82,7.2-5.82H114.97c1.63,0,3.05,.64,3.98,1.8,.95,1.18,1.28,2.81,.9,4.47l-17.99,77.91c-.75,3.26-3.92,5.82-7.2,5.82H5.03Z"/><path id="Logo_BG" class="cls-2" d="M114.5,1H25.63c-2.77,0-5.53,2.26-6.17,5.04L1.63,83.95c-.64,2.79,1.09,5.04,3.86,5.04H94.35c2.77,0,5.53-2.26,6.17-5.04L118.36,6.04c.64-2.78-1.09-5.04-3.86-5.04Z"/></g><g id="Shell_Icon"><g id="Underscore"><path id="Underscore_Blue" class="cls-4" d="M60.16,68.56h21.61c2.51,0,4.55,2.12,4.55,4.75s-2.04,4.75-4.55,4.75h-21.61c-2.51,0-4.55-2.12-4.55-4.75s2.04-4.75,4.55-4.75Z"/><path id="Underscore_White" class="cls-1" d="M59.55,68h21.61c2.51,0,4.55,2.01,4.55,4.5s-2.04,4.5-4.55,4.5h-21.61c-2.51,0-4.55-2.01-4.55-4.5s2.04-4.5,4.55-4.5Z"/></g><g id="Arrow"><path id="Arrow_Blue" class="cls-4" d="M74.18,47.45c-.37,.75-1.14,1.57-2.51,2.53l-40.11,28.81c-2.19,1.59-5.33,1-7.02-1.32s-1.28-5.49,.91-7.08l36.17-26.19v-.54l-22.73-24.18c-1.85-1.97-1.66-5.16,.43-7.12,2.09-1.96,5.29-1.95,7.14,.02l27.27,29.01c1.55,1.65,1.66,4.14,.44,6.06Z"/><path id="Arrow_White" class="cls-1" d="M73.18,46.45c-.37,.75-1.14,1.57-2.51,2.53l-40.11,28.81c-2.19,1.59-5.33,1-7.02-1.32s-1.28-5.49,.91-7.08l36.17-26.19v-.54l-22.73-24.18c-1.85-1.97-1.66-5.16,.43-7.12,2.09-1.96,5.29-1.95,7.14,.02l27.27,29.01c1.55,1.65,1.66,4.14,.44,6.06Z"/></g></g></g></g></svg>